000: 4d 54 68 64 00 00 00 06 00 01 00 03 03 c0 4d 54
016: 72 6b 00 00 00 18 00 ff 03 01 61 00 ff 58 04 04
032: 02 18 08 00 ff 51 03 07 a1 20 00 ff 2f 00 4d 54
048: 72 6b 00 00 00 85 00 ff 03 06 5a 65 62 72 61 32
064: 00 9c 30 55 83 60 8c 30 40 83 60 9c 34 5e 83 60
080: 8c 34 40 83 60 9c 37 60 83 60 8c 37 40 83 60 9c
096: 3c 5e 83 60 8c 3c 40 83 60 9c 30 53 83 60 8c 30
112: 40 83 60 9c 34 5d 83 60 8c 34 40 83 60 9c 37 53
128: 83 60 8c 37 40 83 60 9c 3c 5a 83 60 8c 3c 40 83
144: 60 9c 30 59 83 60 8c 30 40 83 60 9c 34 53 83 60
160: 8c 34 40 83 60 9c 37 5e 83 60 8c 37 40 83 60 9c
176: 3c 5d 83 60 8c 3c 40 00 ff 2f 00 4d 54 72 6b 00
192: 00 00 2d 00 ff 03 06 5a 65 62 72 61 32 00 90 24
208: 5e 9e 00 80 24 00 00 90 24 5e 9e 00 80 24 00 00
224: 90 24 5e 9e 00 80 24 00 00 80 24 00 00 ff 2f 00
